# xmcd
#
# Track frame offsets:
#	187
#	21227
#	43547
#	64552
#	85555
#	106470
#
# Disc length: 1728 seconds
#
# Revision: 1
# Processed by: cddbd v1.5.1PL0 Copyright (c) Steve Scherf et al.
# Submitted via: CDex 1.50Beta5
#
DISCID=3f06be06
DTITLE=GIRLS BE - GIRLS BE…
DYEAR=1997
DGENRE=Pop
TTITLE0=GIRLS BE/GIRLS BE…
TTITLE1=GIRLS BE/真夜中においでよ
TTITLE2=GIRLS BE/GIRLS BE…
TTITLE3=GIRLS BE/GIRLS BE…
TTITLE4=GIRLS BE…
TTITLE5=GIRLS BE/真夜中においでよ
EXTD=
EXTT0=
EXTT1=
EXTT2=
EXTT3=
EXTT4=
EXTT5=
PLAYORDER=
